# xmcd CD database file
#
# Track frame offsets:
#	150
#	8772
#	29332
#	48720
#	70032
#	92177
#	109037
#	127482
#	147292
#	167600
#
# Disc length: 2486 seconds
#
# Revision: 0
# Processed by: cddbd v1.5.1PL0 Copyright (c) Steve Scherf et al.
# Submitted via: CDex 1.51
#
DISCID=8b09b40a
DTITLE=DIVINEFIRE - Hero
DYEAR=2005
DGENRE=Metal
TTITLE0=Resurrection
TTITLE1=Secret Weapon
TTITLE2=New Beginning
TTITLE3=Leaving The Shadows
TTITLE4=United As One
TTITLE5=Hero
TTITLE6=Masquerade
TTITLE7=Open Your Eyes
TTITLE8=Divinefire
TTITLE9=The Show Must Go On
EXTD=YEAR: 2005
EXTT0=
EXTT1=
EXTT2=
EXTT3=
EXTT4=
EXTT5=
EXTT6=
EXTT7=
EXTT8=
EXTT9=
PLAYORDER=
